<mxfile host="app.diagrams.net" agent="Mozilla/5.0 (Windows NT 10.0; Win64; x64) AppleWebKit/537.36 (KHTML, like Gecko) Chrome/130.0.0.0 Safari/537.36" version="24.8.3">
  <diagram name="Сторінка-1" id="xp2piVMJqMO_Ty9BwRBJ">
    <mxGraphModel grid="1" page="1" gridSize="10" guides="1" tooltips="1" connect="1" arrows="1" fold="1" pageScale="1" pageWidth="827" pageHeight="1169" math="0" shadow="0">
      <root>
        <mxCell id="0" />
        <mxCell id="1" parent="0" />
        <mxCell id="I0g96zVayRrHvcNwLztA-4" value="" style="edgeStyle=orthogonalEdgeStyle;rounded=0;orthogonalLoop=1;jettySize=auto;html=1;" edge="1" parent="1" source="I0g96zVayRrHvcNwLztA-1" target="I0g96zVayRrHvcNwLztA-3">
          <mxGeometry relative="1" as="geometry" />
        </mxCell>
        <mxCell id="I0g96zVayRrHvcNwLztA-1" value="Початок програми" style="ellipse;whiteSpace=wrap;html=1;" vertex="1" parent="1">
          <mxGeometry x="350" y="20" width="126" height="50" as="geometry" />
        </mxCell>
        <mxCell id="I0g96zVayRrHvcNwLztA-6" value="" style="edgeStyle=orthogonalEdgeStyle;rounded=0;orthogonalLoop=1;jettySize=auto;html=1;" edge="1" parent="1" source="I0g96zVayRrHvcNwLztA-3" target="I0g96zVayRrHvcNwLztA-5">
          <mxGeometry relative="1" as="geometry" />
        </mxCell>
        <mxCell id="I0g96zVayRrHvcNwLztA-3" value="Задання даних, та запис х з кроком в масив" style="whiteSpace=wrap;html=1;" vertex="1" parent="1">
          <mxGeometry x="353" y="120" width="120" height="60" as="geometry" />
        </mxCell>
        <mxCell id="I0g96zVayRrHvcNwLztA-8" value="" style="edgeStyle=orthogonalEdgeStyle;rounded=0;orthogonalLoop=1;jettySize=auto;html=1;" edge="1" parent="1" source="I0g96zVayRrHvcNwLztA-5" target="I0g96zVayRrHvcNwLztA-7">
          <mxGeometry relative="1" as="geometry" />
        </mxCell>
        <mxCell id="I0g96zVayRrHvcNwLztA-5" value="Обчислення у за кожним х" style="whiteSpace=wrap;html=1;" vertex="1" parent="1">
          <mxGeometry x="353" y="230" width="120" height="60" as="geometry" />
        </mxCell>
        <mxCell id="I0g96zVayRrHvcNwLztA-10" value="" style="edgeStyle=orthogonalEdgeStyle;rounded=0;orthogonalLoop=1;jettySize=auto;html=1;" edge="1" parent="1" source="I0g96zVayRrHvcNwLztA-7" target="I0g96zVayRrHvcNwLztA-9">
          <mxGeometry relative="1" as="geometry" />
        </mxCell>
        <mxCell id="I0g96zVayRrHvcNwLztA-7" value="Створення масиву ряду Тейлора" style="whiteSpace=wrap;html=1;" vertex="1" parent="1">
          <mxGeometry x="353" y="330" width="120" height="60" as="geometry" />
        </mxCell>
        <mxCell id="I0g96zVayRrHvcNwLztA-12" value="" style="edgeStyle=orthogonalEdgeStyle;rounded=0;orthogonalLoop=1;jettySize=auto;html=1;" edge="1" parent="1" source="I0g96zVayRrHvcNwLztA-9" target="I0g96zVayRrHvcNwLztA-11">
          <mxGeometry relative="1" as="geometry" />
        </mxCell>
        <mxCell id="I0g96zVayRrHvcNwLztA-9" value="Пошук суми ряду за n доданків" style="whiteSpace=wrap;html=1;" vertex="1" parent="1">
          <mxGeometry x="353" y="440" width="120" height="60" as="geometry" />
        </mxCell>
        <mxCell id="I0g96zVayRrHvcNwLztA-14" value="" style="edgeStyle=orthogonalEdgeStyle;rounded=0;orthogonalLoop=1;jettySize=auto;html=1;" edge="1" parent="1" source="I0g96zVayRrHvcNwLztA-11" target="I0g96zVayRrHvcNwLztA-13">
          <mxGeometry relative="1" as="geometry" />
        </mxCell>
        <mxCell id="I0g96zVayRrHvcNwLztA-11" value="Створення епсилон ряду" style="whiteSpace=wrap;html=1;" vertex="1" parent="1">
          <mxGeometry x="353" y="550" width="120" height="60" as="geometry" />
        </mxCell>
        <mxCell id="I0g96zVayRrHvcNwLztA-16" value="" style="edgeStyle=orthogonalEdgeStyle;rounded=0;orthogonalLoop=1;jettySize=auto;html=1;" edge="1" parent="1" source="I0g96zVayRrHvcNwLztA-13" target="I0g96zVayRrHvcNwLztA-15">
          <mxGeometry relative="1" as="geometry" />
        </mxCell>
        <mxCell id="I0g96zVayRrHvcNwLztA-13" value="Пошук суми ряду до точності епсилон" style="whiteSpace=wrap;html=1;" vertex="1" parent="1">
          <mxGeometry x="354" y="660" width="120" height="60" as="geometry" />
        </mxCell>
        <mxCell id="I0g96zVayRrHvcNwLztA-18" value="" style="edgeStyle=orthogonalEdgeStyle;rounded=0;orthogonalLoop=1;jettySize=auto;html=1;" edge="1" parent="1" source="I0g96zVayRrHvcNwLztA-15" target="I0g96zVayRrHvcNwLztA-17">
          <mxGeometry relative="1" as="geometry" />
        </mxCell>
        <mxCell id="I0g96zVayRrHvcNwLztA-15" value="Виведення трьох масивів: у, ряду Тейлора та ряду епсилон" style="shape=parallelogram;perimeter=parallelogramPerimeter;whiteSpace=wrap;html=1;fixedSize=1;" vertex="1" parent="1">
          <mxGeometry x="354" y="770" width="120" height="60" as="geometry" />
        </mxCell>
        <mxCell id="I0g96zVayRrHvcNwLztA-17" value="Завершення програми" style="ellipse;whiteSpace=wrap;html=1;" vertex="1" parent="1">
          <mxGeometry x="360.5" y="870" width="107" height="30" as="geometry" />
        </mxCell>
      </root>
    </mxGraphModel>
  </diagram>
</mxfile>
